[img]http://img.sceper.eu/images/lmfaoppkp.jpg[/img]

General
Complete name                    : LMFAO - Party Rock Anthem ft. Lauren Bennett, GoonRock 1080 Anky.mp4
Format                           : MPEG-4
Format profile                   : Base Media / Version 2
Codec ID                         : mp42
File size                        : 230 MiB
Duration                         : 6mn 15s

Video
ID                               : 1
Format                           : AVC
Format/Info                      : Advanced Video Codec
Format profile                   : High@L4.0
Format settings, CABAC           : Yes
Format settings, ReFrames        : 1 frame
Codec ID                         : avc1
Codec ID/Info                    : Advanced Video Coding
Duration                         : 6mn 15s
Bit rate mode                    : Variable
Bit rate                         : 4 999 Kbps
Maximum bit rate                 : 12.0 Mbps
Width                            : 1 920 pixels
Height                           : 1 080 pixels
Display aspect ratio             : 16:9
Frame rate mode                  : Variable
Frame rate                       : 23.976 fps
Minimum frame rate               : 17.241 fps
Maximum frame rate               : 24.390 fps
Resolution                       : 24 bits
Colorimetry                      : 4:2:0
Scan type                        : Progressive
Bits/(Pixel*Frame)               : 0.101
Stream size                      : 224 MiB (97%)

Audio
ID                               : 2
Format                           : AAC
Format/Info                      : Advanced Audio Codec
Format version                   : Version 4
Format profile                   : LC
Format settings, SBR             : No
Codec ID                         : 40
Duration                         : 6mn 15s
Bit rate mode                    : Variable
Bit rate                         : 124 Kbps
Maximum bit rate                 : 168 Kbps
Channel(s)                       : 2 channels
Channel positions                : L R
Sampling rate                    : 44.1 KHz
Resolution                       : 16 bits
Stream size                      : 5.56 MiB (2%)


ScreenShots
[img]http://img.sceper.eu/images/vlcsnabcb.jpg[/img]
[img]http://img.sceper.eu/images/vlcsnapyp.jpg[/img]
[img]http://img.sceper.eu/images/vlcsnagrg.jpg[/img]